<svg width="345" height="345" viewBox="0 0 345 345" fill="none" xmlns="http://www.w3.org/2000/svg">
<path d="M286.478 243.426C296.023 231.765 297.405 216.569 289.909 204.497C288.089 201.565 285.605 198.567 283.245 196.568L249.892 170.085L259.045 164.401C267.66 159.052 272.482 151.399 273.65 142.668L290.905 143.424C293.36 143.573 295.962 141.957 296.559 139.914C297.876 136.228 295.574 132.52 291.9 132.412L273.481 131.782C272.348 126.153 269.658 119.818 266.017 113.955C262.162 107.746 257.892 102.871 253.349 99.3591L260.505 82.8491C261.909 80.3045 260.986 76.8155 258.355 75.5818C255.546 73.8612 251.778 75.6031 250.695 78.665L243.721 94.4653C235.377 91.641 225.93 92.847 217.764 97.9175L208.611 103.601L199.577 62.0177C198.654 58.5287 196.978 55.029 195.425 52.5283C188.197 40.8872 174.146 34.6774 159.012 38.3391C141.19 42.4758 125.216 52.3939 113.156 66.8119C103.611 78.4732 102.497 94.0996 109.725 105.741C111.545 108.673 114.029 111.671 116.389 113.67L145.469 136.474L145.02 136.753C131.505 138.215 117.804 142.182 105.69 149.704C74.1018 169.318 59.6049 204.842 65.7758 237.809C92.6763 257.905 130.856 260.722 162.444 241.109C175.007 233.308 184.404 223.411 191.494 211.601L191.943 211.323L200.289 248.793C201.212 252.282 202.887 255.782 204.44 258.283C211.668 269.924 226.436 276.286 240.853 272.472C258.625 267.052 274.598 257.134 286.478 243.426ZM222.369 105.333C228.381 101.6 233.166 101.497 238.038 102.534L235.102 108.419C234.381 110.061 234.95 111.978 235.699 113.186C236.449 114.393 237.701 115.408 239.044 115.768C241.766 116.348 244.817 114.454 245.773 112.188L247.539 108.224C247.539 108.224 247.539 108.224 247.987 107.945C251.814 111.304 254.17 115.098 255.936 117.944C257.703 120.79 259.61 124.862 261.373 129.503C261.373 129.503 261.373 129.503 260.924 129.781L256.856 130.038C253.952 130.168 251.35 131.783 250.662 134.48C250.3 135.9 250.691 137.33 251.494 138.624C252.297 139.917 254.212 140.998 255.501 141.273L262.078 141.251C261.296 145.799 258.722 150.265 252.62 154.054L240.056 161.854L209.805 113.134L222.369 105.333ZM123.692 102.803C119.865 99.4444 117.028 94.8742 116.163 89.6765C114.943 82.9067 117.578 75.5358 122.214 70.3871C132.241 59.5019 144.804 51.7012 158.917 47.5977C165.947 45.5029 173.059 46.3438 178.89 50.7283C183.165 53.8087 186.003 58.3789 187.316 63.2981C187.316 63.2981 192.594 88.2175 195.662 100.769C196.976 105.688 195.745 110.514 193.798 115.188L192.213 118.442C188.322 126.593 180.066 131.719 171.035 131.592C169.869 131.718 168.58 131.444 167.415 131.57C162.362 131.242 157.366 129.804 153.397 126.414L123.692 102.803ZM110.422 241.629L81.2952 194.72C84.3788 187.07 88.4841 179.264 94.109 172.905L135.39 239.388C127.643 241.331 118.699 242.344 110.422 241.629ZM112.264 157.689C119.174 153.399 126.026 150.817 133.109 148.808L174.39 215.292C169.394 220.664 163.647 226.025 157.186 230.037L112.264 157.689ZM239.97 260.236C233.031 261.677 225.828 261.49 219.997 257.106C215.722 254.025 212.885 249.455 211.571 244.536L203.669 208.582C202.537 202.953 203.734 197.072 206.757 192.328C207.386 191.339 208.375 190.128 209.058 189.226C212.891 182.784 219.801 178.493 227.185 177.971L230.986 177.283C236.846 177.109 242.648 178.644 246.923 181.725C257.475 190.108 275.912 205.183 275.912 205.183C279.738 208.542 282.576 213.112 283.441 218.31C284.66 225.08 281.758 232.02 277.389 237.599C267.399 248.343 254.387 256.422 239.97 260.236Z" fill="#CCD5AE" stroke="#CCD5AE" stroke-width="2.4"/>
</svg>
