<svg width="80" height="80" viewBox="0 0 80 80" fill="none" xmlns="http://www.w3.org/2000/svg">
<circle cx="40" cy="40" r="40" fill="#D9D9D9"/>
<path d="M12.28 47V33H13.76V45.72H21.6V47H12.28ZM29.9039 47.12C28.8506 47.12 27.8706 46.9467 26.9639 46.6C26.0706 46.24 25.2906 45.74 24.6239 45.1C23.9706 44.4467 23.4572 43.6933 23.0839 42.84C22.7239 41.9733 22.5439 41.0267 22.5439 40C22.5439 38.9733 22.7239 38.0333 23.0839 37.18C23.4572 36.3133 23.9706 35.56 24.6239 34.92C25.2906 34.2667 26.0706 33.7667 26.9639 33.42C27.8572 33.06 28.8372 32.88 29.9039 32.88C30.9572 32.88 31.9306 33.06 32.8239 33.42C33.7172 33.7667 34.4906 34.26 35.1439 34.9C35.8106 35.54 36.3239 36.2933 36.6839 37.16C37.0572 38.0267 37.2439 38.9733 37.2439 40C37.2439 41.0267 37.0572 41.9733 36.6839 42.84C36.3239 43.7067 35.8106 44.46 35.1439 45.1C34.4906 45.74 33.7172 46.24 32.8239 46.6C31.9306 46.9467 30.9572 47.12 29.9039 47.12ZM29.9039 45.8C30.7439 45.8 31.5172 45.66 32.2239 45.38C32.9439 45.0867 33.5639 44.68 34.0839 44.16C34.6172 43.6267 35.0306 43.0133 35.3239 42.32C35.6172 41.6133 35.7639 40.84 35.7639 40C35.7639 39.16 35.6172 38.3933 35.3239 37.7C35.0306 36.9933 34.6172 36.38 34.0839 35.86C33.5639 35.3267 32.9439 34.92 32.2239 34.64C31.5172 34.3467 30.7439 34.2 29.9039 34.2C29.0639 34.2 28.2839 34.3467 27.5639 34.64C26.8439 34.92 26.2172 35.3267 25.6839 35.86C25.1639 36.38 24.7506 36.9933 24.4439 37.7C24.1506 38.3933 24.0039 39.16 24.0039 40C24.0039 40.8267 24.1506 41.5933 24.4439 42.3C24.7506 43.0067 25.1639 43.6267 25.6839 44.16C26.2172 44.68 26.8439 45.0867 27.5639 45.38C28.2839 45.66 29.0639 45.8 29.9039 45.8ZM46.7013 47.12C45.6346 47.12 44.6479 46.9467 43.7413 46.6C42.8479 46.24 42.0679 45.74 41.4013 45.1C40.7479 44.46 40.2346 43.7067 39.8613 42.84C39.5013 41.9733 39.3213 41.0267 39.3213 40C39.3213 38.9733 39.5013 38.0267 39.8613 37.16C40.2346 36.2933 40.7546 35.54 41.4213 34.9C42.0879 34.26 42.8679 33.7667 43.7613 33.42C44.6679 33.06 45.6546 32.88 46.7213 32.88C47.7879 32.88 48.7613 33.0467 49.6413 33.38C50.5346 33.7133 51.2946 34.22 51.9213 34.9L51.0013 35.84C50.4146 35.2533 49.7679 34.8333 49.0613 34.58C48.3546 34.3267 47.5946 34.2 46.7813 34.2C45.9146 34.2 45.1146 34.3467 44.3813 34.64C43.6613 34.92 43.0279 35.3267 42.4813 35.86C41.9479 36.38 41.5279 36.9933 41.2212 37.7C40.9279 38.3933 40.7812 39.16 40.7812 40C40.7812 40.8267 40.9279 41.5933 41.2212 42.3C41.5279 43.0067 41.9479 43.6267 42.4813 44.16C43.0279 44.68 43.6613 45.0867 44.3813 45.38C45.1146 45.66 45.9079 45.8 46.7613 45.8C47.5613 45.8 48.3146 45.68 49.0213 45.44C49.7413 45.2 50.4013 44.7933 51.0013 44.22L51.8413 45.34C51.1746 45.9267 50.3946 46.3733 49.5013 46.68C48.6079 46.9733 47.6746 47.12 46.7013 47.12ZM50.4213 45.16V40H51.8413V45.34L50.4213 45.16ZM62.15 47.12C61.0967 47.12 60.1167 46.9467 59.21 46.6C58.3167 46.24 57.5367 45.74 56.87 45.1C56.2167 44.4467 55.7033 43.6933 55.33 42.84C54.97 41.9733 54.79 41.0267 54.79 40C54.79 38.9733 54.97 38.0333 55.33 37.18C55.7033 36.3133 56.2167 35.56 56.87 34.92C57.5367 34.2667 58.3167 33.7667 59.21 33.42C60.1033 33.06 61.0833 32.88 62.15 32.88C63.2033 32.88 64.1767 33.06 65.07 33.42C65.9633 33.7667 66.7367 34.26 67.39 34.9C68.0567 35.54 68.57 36.2933 68.93 37.16C69.3033 38.0267 69.49 38.9733 69.49 40C69.49 41.0267 69.3033 41.9733 68.93 42.84C68.57 43.7067 68.0567 44.46 67.39 45.1C66.7367 45.74 65.9633 46.24 65.07 46.6C64.1767 46.9467 63.2033 47.12 62.15 47.12ZM62.15 45.8C62.99 45.8 63.7633 45.66 64.47 45.38C65.19 45.0867 65.81 44.68 66.33 44.16C66.8633 43.6267 67.2767 43.0133 67.57 42.32C67.8633 41.6133 68.01 40.84 68.01 40C68.01 39.16 67.8633 38.3933 67.57 37.7C67.2767 36.9933 66.8633 36.38 66.33 35.86C65.81 35.3267 65.19 34.92 64.47 34.64C63.7633 34.3467 62.99 34.2 62.15 34.2C61.31 34.2 60.53 34.3467 59.81 34.64C59.09 34.92 58.4633 35.3267 57.93 35.86C57.41 36.38 56.9967 36.9933 56.69 37.7C56.3967 38.3933 56.25 39.16 56.25 40C56.25 40.8267 56.3967 41.5933 56.69 42.3C56.9967 43.0067 57.41 43.6267 57.93 44.16C58.4633 44.68 59.09 45.0867 59.81 45.38C60.53 45.66 61.31 45.8 62.15 45.8Z" fill="black"/>
</svg>
