<?xml version="1.0" encoding="UTF-8"?>
<svg id="Layer_2" xmlns="http://www.w3.org/2000/svg" viewBox="0 0 245 338.5">
  <defs>
    <style>
      .cls-1 {
        stroke: #ffa800;
        stroke-width: 4px;
      }

      .cls-1, .cls-2, .cls-3, .cls-4, .cls-5 {
        stroke-miterlimit: 10;
      }

      .cls-1, .cls-6 {
        fill: #fdcc00;
      }

      .cls-7 {
        fill: #fff;
      }

      .cls-8 {
        opacity: .94;
      }

      .cls-2 {
        fill: #ffe100;
      }

      .cls-2, .cls-5 {
        stroke: #63431a;
      }

      .cls-3 {
        opacity: .89;
      }

      .cls-3, .cls-4 {
        fill: none;
        stroke: #fff;
      }

      .cls-4 {
        opacity: .6;
      }

      .cls-9, .cls-5 {
        fill: #874a0f;
      }
    </style>
  </defs>
  <g id="honey">
    <g id="honey-2" data-name="honey">
      <rect class="cls-1" x="2" y="41.5" width="241" height="295" rx="85.22" ry="85.22"/>
      <g class="cls-8">
        <path class="cls-6" d="M35.5,61c-6.53,6.09-15.74,16.25-22,31-5.21,12.26-6.04,22.18-7,39-3.74,65.52-.93,87.43,0,126,.04,1.52.12,5.21,1,10,2.17,11.84,7.33,20.18,11,26,3.31,5.24,8.51,13.28,18,21,11.06,9,22.42,13.06,30,15"/>
        <path class="cls-7" d="M36.86,62.46c-16.18,15.2-26.06,34.93-27.18,57.18-3.6,41.02-3.2,82.15-1.2,123.24.11,3.05.39,11.3.47,14.28.2,10.73,3.58,21.16,9.12,30.31,4.69,7.94,10.12,15.64,17.03,21.76,9.17,8.43,20.19,13.86,31.65,18.75,0,0-.51,2-.51,2-13.07-1.32-25.14-8.05-34.76-16.78-7.3-6.63-12.8-14.77-17.75-23.18-5.91-9.84-9.51-21.22-9.67-32.75-.06-2.94-.31-11.17-.4-14.23-2.14-41.24-1.39-82.64,1.21-123.83.94-16.25,6.66-32.14,16.34-45.24,3.81-5.25,8.18-10.08,12.93-14.46,0,0,2.73,2.92,2.73,2.92h0Z"/>
      </g>
      <ellipse class="cls-5" cx="122" cy="41" rx="100" ry="40.5"/>
      <path class="cls-4" d="M42.6,49.28c.03-3.52.08-5.97.1-16.21,0-3.07.02-13.18.02-16.21-3.05,1.21-9.06,4.67-14.5,11.2-3.38,4.06-5.21,8.41-5.21,12.93,0,8.86,7.04,17.06,18.96,23.73.2-5.19.59-10.39.64-15.45Z"/>
      <path class="cls-9" d="M41.2,18.89c-.66,1.3-.73,2.63-.76,4.07-.03,1.61-.04,3.23-.04,4.84s-.03,3.18.11,4.76.48,2.96.74,4.44c.53,3.03.18,6.19.28,9.25.11,3.36.41,6.71.7,10.06.17,1.91,3.17,1.93,3,0-.27-3.1-.55-6.21-.68-9.33s.15-6.05-.16-9.04c-.14-1.34-.44-2.64-.68-3.96-.27-1.49-.3-3-.31-4.51s0-3.06.01-4.59c.01-1.38-.26-3.23.37-4.49.87-1.72-1.72-3.24-2.59-1.51h0Z"/>
      <path class="cls-9" d="M44.12,62.93c.19-1.54,0-3.05-.25-4.58s-.49-2.52-.42-4.05c.03-.78-.71-1.54-1.5-1.5-.84.04-1.46.66-1.5,1.5-.07,1.52.22,3.04.48,4.53.06.34.12.69.17,1.03.02.11.02.11,0,0,.01.11.03.21.04.32.02.16.03.32.05.48.06.76.04,1.51-.05,2.27s.76,1.53,1.5,1.5c.89-.04,1.4-.66,1.5-1.5h0Z"/>
      <path class="cls-9" d="M43.28,20.53c1.93,0,1.93-3,0-3s-1.93,3,0,3h0Z"/>
      <path class="cls-9" d="M43.27,20.36c1.93,0,1.93-3,0-3s-1.93,3,0,3h0Z"/>
      <path class="cls-9" d="M43.24,20.23c1.93,0,1.93-3,0-3s-1.93,3,0,3h0Z"/>
      <path class="cls-9" d="M43.43,20.06c1.93,0,1.93-3,0-3s-1.93,3,0,3h0Z"/>
      <path class="cls-9" d="M43.79,19.81c1.93,0,1.93-3,0-3s-1.93,3,0,3h0Z"/>
      <path class="cls-9" d="M43.97,19.62c1.93,0,1.93-3,0-3s-1.93,3,0,3h0Z"/>
      <path class="cls-9" d="M42.83,17.78v.02c.02-.13.03-.27.05-.4,0,.03-.01.05-.02.07l.15-.36s-.04.07-.07.1l.23-.3c-.21.27-.45.51-.7.74-.15.14-.25.3-.31.48-.09.18-.14.37-.13.58,0,.21.04.4.13.58.06.19.16.35.31.48l.3.23c.23.14.49.2.76.2l.4-.05c.25-.07.47-.2.66-.39.16-.15.32-.3.47-.46.07-.08.14-.16.21-.25.09-.11.18-.23.27-.35.02-.02.03-.04.04-.06.04-.06.06-.15.09-.21.02-.04.06-.14.09-.21,0,0,0-.02,0-.03.01-.07.02-.14.03-.21.01-.07.02-.14.03-.21,0-.21-.04-.4-.13-.58-.06-.19-.16-.35-.31-.48-.14-.15-.3-.25-.48-.31-.18-.09-.37-.14-.58-.13l-.4.05c-.25.07-.47.2-.66.39l-.23.3c-.14.23-.2.49-.2.76h0Z"/>
      <path class="cls-9" d="M43.94,61.94c-.11-.02-.23-.03-.34-.06l.36.15s-.03-.01-.04-.02l.3.23s-.03-.03-.04-.04l.23.3c-.16-.21-.31-.44-.49-.64-.13-.14-.28-.26-.45-.34-.09-.04-.29-.14-.43-.17-.41-.09-.46-.06-.87,0-.2.05-.37.14-.51.27-.16.11-.29.25-.39.42-.11.17-.17.36-.18.56-.04.2-.04.4.03.6l.15.36c.13.23.31.4.54.54l.36.15c.27.07.53.07.8,0h.02c-.13.02-.27.03-.4.05.02,0,.04,0,.06,0l-.4-.05s.05.01.07.02l-.36-.15s.05.03.08.05l-.3-.23s.09.08.12.13l-.23-.3c.04.06.08.11.13.17.02.03.04.06.06.09.08.11.17.23.25.33.01.01.02.02.03.03l.3.23s.02.01.02.02c.12.07.25.13.39.16.03,0,.07.01.1.02l.22.04c.2.06.4.07.6.03.2,0,.39-.07.56-.18.17-.09.32-.22.42-.39.13-.14.22-.31.27-.51l.05-.4c0-.27-.07-.52-.2-.76l-.23-.3c-.19-.19-.41-.31-.66-.39h0Z"/>
      <path class="cls-9" d="M44.19,62.26s-.04-.05-.06-.07c-.01-.01-.03-.02-.04-.03-.11-.09-.22-.18-.33-.26-.03-.02-.05-.03-.08-.05s-.06-.03-.08-.04l.3.23s-.01-.01-.02-.02l.23.3s-.01-.02-.02-.04l.15.36c-.06-.15-.11-.31-.19-.45,0,0,0-.02-.02-.02,0,0,0,0-.01-.01l-.23-.3s-.03-.03-.04-.04c-.06-.05-.13-.11-.19-.15s-.13-.1-.19-.14c-.14-.08-.3-.14-.45-.19-.2-.06-.4-.07-.6-.03-.2,0-.39.07-.56.18-.17.09-.32.22-.42.39-.13.14-.22.31-.27.51l-.05.4c0,.27.07.52.2.76l.23.3c.19.19.41.31.66.39.01,0,.03,0,.04.02l-.36-.15s.06.03.09.05l-.3-.23s.05.05.08.08l-.23-.3s.04.06.05.09l-.15-.36c.03.07.06.14.09.22.02.05.05.15.09.21.07.11.16.23.26.33l.3.23h0s.01.01.02.02c.05.03.1.05.15.09l-.3-.23s.08.07.11.11c.14.15.3.25.48.31.18.09.37.14.58.13.21,0,.4-.04.58-.13.19-.06.35-.16.48-.31l.23-.3c.14-.23.2-.49.2-.76l-.05-.4c-.07-.25-.2-.47-.39-.66h0Z"/>
      <path class="cls-9" d="M42.41,64.22c1.93,0,1.93-3,0-3s-1.93,3,0,3h0Z"/>
      <path class="cls-9" d="M42.55,64.33c1.93,0,1.93-3,0-3s-1.93,3,0,3h0Z"/>
      <path class="cls-9" d="M42.43,64.24c1.93,0,1.93-3,0-3s-1.93,3,0,3h0Z"/>
      <path class="cls-9" d="M42.41,64.23c1.93,0,1.93-3,0-3s-1.93,3,0,3h0Z"/>
      <path class="cls-9" d="M43.33,64.95c1.93,0,1.93-3,0-3s-1.93,3,0,3h0Z"/>
      <path class="cls-9" d="M43.43,65.04c1.93,0,1.93-3,0-3s-1.93,3,0,3h0Z"/>
      <path class="cls-9" d="M43.47,65.1c1.93,0,1.93-3,0-3s-1.93,3,0,3h0Z"/>
      <path class="cls-9" d="M43.5,65.16c1.93,0,1.93-3,0-3s-1.93,3,0,3h0Z"/>
      <path class="cls-9" d="M43.51,65.17c1.93,0,1.93-3,0-3s-1.93,3,0,3h0Z"/>
      <polygon class="cls-2" points="117.05 206.49 102.65 210.14 88.27 213.87 77.91 203.23 67.49 192.64 71.53 178.35 75.49 164.03 89.88 160.38 104.26 156.65 114.62 167.29 125.04 177.88 121.01 192.18 117.05 206.49"/>
      <polygon class="cls-2" points="130.65 257.78 116.25 261.43 101.87 265.16 91.51 254.52 81.09 243.93 85.13 229.63 89.09 215.32 103.49 211.67 117.87 207.94 128.23 218.58 138.65 229.17 134.61 243.46 130.65 257.78"/>
      <polygon class="cls-2" points="168.41 220.67 154.02 224.32 139.64 228.05 129.28 217.41 118.86 206.82 122.9 192.53 126.86 178.21 141.25 174.56 155.63 170.83 165.99 181.47 176.41 192.06 172.37 206.36 168.41 220.67"/>
      <line class="cls-3" x1="76.54" y1="164.73" x2="68.78" y2="192.69"/>
      <line class="cls-3" x1="89.72" y1="216.07" x2="81.96" y2="244.03"/>
      <line class="cls-3" x1="127.93" y1="178.29" x2="119.93" y2="206.72"/>
    </g>
  </g>
</svg>